<mxfile host="app.diagrams.net" modified="2023-09-24T16:17:41.726Z" agent="Mozilla/5.0 (Windows NT 10.0; Win64; x64) AppleWebKit/537.36 (KHTML, like Gecko) Chrome/117.0.0.0 Safari/537.36 Edg/117.0.2045.36" etag="tYsmuQ0PXW3qb58c30kF" version="21.3.5" type="device">
  <diagram name="Page-1" id="kuyVlcc-45cMkKoPPy8i">
    <mxGraphModel dx="1457" dy="944" grid="1" gridSize="10" guides="1" tooltips="1" connect="1" arrows="1" fold="1" page="1" pageScale="1" pageWidth="850" pageHeight="1100" math="0" shadow="0">
      <root>
        <mxCell id="0" />
        <mxCell id="1" parent="0" />
        <mxCell id="bsLUN6LqZiM4ZwWC1hNF-1" value="" style="whiteSpace=wrap;html=1;aspect=fixed;" vertex="1" parent="1">
          <mxGeometry x="30" y="50" width="500" height="500" as="geometry" />
        </mxCell>
        <mxCell id="bsLUN6LqZiM4ZwWC1hNF-3" value="Giới thiệu" style="rounded=0;whiteSpace=wrap;html=1;" vertex="1" parent="1">
          <mxGeometry x="155" y="80" width="250" height="60" as="geometry" />
        </mxCell>
        <mxCell id="bsLUN6LqZiM4ZwWC1hNF-4" value="" style="rounded=0;whiteSpace=wrap;html=1;" vertex="1" parent="1">
          <mxGeometry x="260" y="280" width="240" height="190" as="geometry" />
        </mxCell>
        <mxCell id="bsLUN6LqZiM4ZwWC1hNF-5" value="" style="whiteSpace=wrap;html=1;aspect=fixed;" vertex="1" parent="1">
          <mxGeometry x="50" y="280" width="190" height="190" as="geometry" />
        </mxCell>
        <mxCell id="bsLUN6LqZiM4ZwWC1hNF-16" value="" style="edgeStyle=orthogonalEdgeStyle;rounded=0;orthogonalLoop=1;jettySize=auto;html=1;" edge="1" parent="1" source="bsLUN6LqZiM4ZwWC1hNF-6" target="bsLUN6LqZiM4ZwWC1hNF-13">
          <mxGeometry relative="1" as="geometry" />
        </mxCell>
        <mxCell id="bsLUN6LqZiM4ZwWC1hNF-6" value="" style="whiteSpace=wrap;html=1;aspect=fixed;" vertex="1" parent="1">
          <mxGeometry x="577.5" y="40" width="330" height="330" as="geometry" />
        </mxCell>
        <mxCell id="bsLUN6LqZiM4ZwWC1hNF-7" value="Đăng ký" style="rounded=1;whiteSpace=wrap;html=1;" vertex="1" parent="1">
          <mxGeometry x="385" y="160" width="80" height="30" as="geometry" />
        </mxCell>
        <mxCell id="bsLUN6LqZiM4ZwWC1hNF-8" value="Đăng nhập" style="rounded=1;whiteSpace=wrap;html=1;" vertex="1" parent="1">
          <mxGeometry x="290" y="160" width="70" height="30" as="geometry" />
        </mxCell>
        <mxCell id="bsLUN6LqZiM4ZwWC1hNF-9" value="Đăng ký" style="rounded=0;whiteSpace=wrap;html=1;" vertex="1" parent="1">
          <mxGeometry x="660" y="90" width="140" height="60" as="geometry" />
        </mxCell>
        <mxCell id="bsLUN6LqZiM4ZwWC1hNF-11" value="" style="rounded=0;whiteSpace=wrap;html=1;" vertex="1" parent="1">
          <mxGeometry x="600" y="380" width="285" height="200" as="geometry" />
        </mxCell>
        <mxCell id="bsLUN6LqZiM4ZwWC1hNF-12" value="Đăng nhập" style="rounded=0;whiteSpace=wrap;html=1;" vertex="1" parent="1">
          <mxGeometry x="672.5" y="430" width="140" height="60" as="geometry" />
        </mxCell>
        <mxCell id="bsLUN6LqZiM4ZwWC1hNF-13" value="" style="rounded=0;whiteSpace=wrap;html=1;" vertex="1" parent="1">
          <mxGeometry x="970" y="200" width="440" height="260" as="geometry" />
        </mxCell>
        <mxCell id="bsLUN6LqZiM4ZwWC1hNF-14" value="Thông tin học viên" style="rounded=1;whiteSpace=wrap;html=1;" vertex="1" parent="1">
          <mxGeometry x="1110" y="210" width="160" height="70" as="geometry" />
        </mxCell>
        <mxCell id="bsLUN6LqZiM4ZwWC1hNF-18" value="Tham gia lớp học&amp;nbsp;" style="rounded=1;whiteSpace=wrap;html=1;" vertex="1" parent="1">
          <mxGeometry x="1020" y="300" width="120" height="60" as="geometry" />
        </mxCell>
        <mxCell id="bsLUN6LqZiM4ZwWC1hNF-20" value="Thông tin lớp học&lt;br&gt;tên gv, mã lớp, ngày&amp;nbsp;&amp;nbsp;" style="rounded=1;whiteSpace=wrap;html=1;" vertex="1" parent="1">
          <mxGeometry x="1160" y="300" width="120" height="60" as="geometry" />
        </mxCell>
        <mxCell id="bsLUN6LqZiM4ZwWC1hNF-21" value="Tài liệu&lt;br&gt;Thêm, thông tin&amp;nbsp;" style="rounded=1;whiteSpace=wrap;html=1;" vertex="1" parent="1">
          <mxGeometry x="1020" y="380" width="120" height="60" as="geometry" />
        </mxCell>
        <mxCell id="bsLUN6LqZiM4ZwWC1hNF-22" value="" style="rounded=0;whiteSpace=wrap;html=1;" vertex="1" parent="1">
          <mxGeometry x="950" y="520" width="440" height="260" as="geometry" />
        </mxCell>
        <mxCell id="bsLUN6LqZiM4ZwWC1hNF-23" value="tt giáo viên&lt;br&gt;/giaovien/id" style="rounded=1;whiteSpace=wrap;html=1;" vertex="1" parent="1">
          <mxGeometry x="1115" y="550" width="160" height="70" as="geometry" />
        </mxCell>
        <mxCell id="bsLUN6LqZiM4ZwWC1hNF-25" value="Xem lớp học&lt;br&gt;Tối đa 2 lớp" style="rounded=1;whiteSpace=wrap;html=1;" vertex="1" parent="1">
          <mxGeometry x="1140" y="640" width="120" height="60" as="geometry" />
        </mxCell>
        <mxCell id="bsLUN6LqZiM4ZwWC1hNF-26" value="" style="whiteSpace=wrap;html=1;aspect=fixed;" vertex="1" parent="1">
          <mxGeometry x="460" y="770" width="330" height="330" as="geometry" />
        </mxCell>
        <mxCell id="bsLUN6LqZiM4ZwWC1hNF-27" value="Admin&lt;br&gt;/admin" style="rounded=1;whiteSpace=wrap;html=1;" vertex="1" parent="1">
          <mxGeometry x="552.5" y="780" width="120" height="60" as="geometry" />
        </mxCell>
        <mxCell id="bsLUN6LqZiM4ZwWC1hNF-28" value="" style="rounded=1;whiteSpace=wrap;html=1;" vertex="1" parent="1">
          <mxGeometry x="1165" y="710" width="55" height="20" as="geometry" />
        </mxCell>
        <mxCell id="bsLUN6LqZiM4ZwWC1hNF-29" value="" style="rounded=1;whiteSpace=wrap;html=1;" vertex="1" parent="1">
          <mxGeometry x="1165" y="740" width="55" height="20" as="geometry" />
        </mxCell>
        <mxCell id="bsLUN6LqZiM4ZwWC1hNF-38" value="" style="edgeStyle=orthogonalEdgeStyle;rounded=0;orthogonalLoop=1;jettySize=auto;html=1;" edge="1" parent="1" source="bsLUN6LqZiM4ZwWC1hNF-30" target="bsLUN6LqZiM4ZwWC1hNF-37">
          <mxGeometry relative="1" as="geometry" />
        </mxCell>
        <mxCell id="bsLUN6LqZiM4ZwWC1hNF-30" value="" style="rounded=0;whiteSpace=wrap;html=1;" vertex="1" parent="1">
          <mxGeometry x="950" y="810" width="470" height="370" as="geometry" />
        </mxCell>
        <mxCell id="bsLUN6LqZiM4ZwWC1hNF-31" value="Thông tin lớp học" style="rounded=1;whiteSpace=wrap;html=1;" vertex="1" parent="1">
          <mxGeometry x="1130" y="840" width="120" height="60" as="geometry" />
        </mxCell>
        <mxCell id="bsLUN6LqZiM4ZwWC1hNF-32" value="Danh sách sv" style="rounded=1;whiteSpace=wrap;html=1;" vertex="1" parent="1">
          <mxGeometry x="995" y="920" width="120" height="60" as="geometry" />
        </mxCell>
        <mxCell id="bsLUN6LqZiM4ZwWC1hNF-33" value="Bài tập&amp;nbsp;" style="rounded=1;whiteSpace=wrap;html=1;" vertex="1" parent="1">
          <mxGeometry x="995" y="1010" width="120" height="60" as="geometry" />
        </mxCell>
        <mxCell id="bsLUN6LqZiM4ZwWC1hNF-34" value="Thông báo" style="rounded=1;whiteSpace=wrap;html=1;" vertex="1" parent="1">
          <mxGeometry x="1155" y="920" width="120" height="60" as="geometry" />
        </mxCell>
        <mxCell id="bsLUN6LqZiM4ZwWC1hNF-35" value="Thông báo" style="rounded=1;whiteSpace=wrap;html=1;" vertex="1" parent="1">
          <mxGeometry x="1160" y="380" width="120" height="60" as="geometry" />
        </mxCell>
        <mxCell id="bsLUN6LqZiM4ZwWC1hNF-36" value="!GiaoVien ?( &quot;&quot;:Thêm bài tập )" style="rounded=1;whiteSpace=wrap;html=1;" vertex="1" parent="1">
          <mxGeometry x="1153.75" y="1010" width="132.5" height="60" as="geometry" />
        </mxCell>
        <mxCell id="bsLUN6LqZiM4ZwWC1hNF-37" value="" style="rounded=1;whiteSpace=wrap;html=1;" vertex="1" parent="1">
          <mxGeometry x="1530" y="820" width="280" height="360" as="geometry" />
        </mxCell>
        <mxCell id="bsLUN6LqZiM4ZwWC1hNF-39" value="Danh sách sv&lt;br&gt;Để chấm điểm" style="rounded=1;whiteSpace=wrap;html=1;" vertex="1" parent="1">
          <mxGeometry x="1610" y="840" width="120" height="60" as="geometry" />
        </mxCell>
        <mxCell id="bsLUN6LqZiM4ZwWC1hNF-40" value="Thêm/ tạo giáo viên" style="rounded=1;whiteSpace=wrap;html=1;" vertex="1" parent="1">
          <mxGeometry x="480" y="870" width="120" height="60" as="geometry" />
        </mxCell>
        <mxCell id="bsLUN6LqZiM4ZwWC1hNF-24" value="Tạo lớp học" style="rounded=1;whiteSpace=wrap;html=1;" vertex="1" parent="1">
          <mxGeometry x="620" y="870" width="120" height="60" as="geometry" />
        </mxCell>
        <mxCell id="bsLUN6LqZiM4ZwWC1hNF-42" value="" style="whiteSpace=wrap;html=1;aspect=fixed;" vertex="1" parent="1">
          <mxGeometry x="45" y="570" width="330" height="330" as="geometry" />
        </mxCell>
        <mxCell id="bsLUN6LqZiM4ZwWC1hNF-43" value="Đăng ký" style="rounded=0;whiteSpace=wrap;html=1;" vertex="1" parent="1">
          <mxGeometry x="130" y="650" width="140" height="60" as="geometry" />
        </mxCell>
        <mxCell id="bsLUN6LqZiM4ZwWC1hNF-44" value="" style="rounded=0;whiteSpace=wrap;html=1;" vertex="1" parent="1">
          <mxGeometry x="65" y="910" width="285" height="200" as="geometry" />
        </mxCell>
        <mxCell id="bsLUN6LqZiM4ZwWC1hNF-45" value="Đăng nhập" style="rounded=0;whiteSpace=wrap;html=1;" vertex="1" parent="1">
          <mxGeometry x="140" y="965" width="140" height="60" as="geometry" />
        </mxCell>
      </root>
    </mxGraphModel>
  </diagram>
</mxfile>
